# xmcd
#
# Track frame offsets:
#	150
#	18660
#	36227
#	52745
#	68472
#	84182
#	100387
#
# Disc length: 1521 seconds
#
# Revision: 0
# Processed by: cddbd v1.4PL0 Copyright (c) Steve Scherf et al.
# Submitted via: dBpowerAMP V4.0
#
DISCID=4a05ef07
DTITLE=Reba McEntire - Comfort From A Country Quilt
DYEAR=1999
DGENRE=Country
TTITLE0="Comfort From A Country Quilt" forward read by Reba McEntire
TTITLE1=Forever Love
TTITLE2=Only In My Mind
TTITLE3=I'd Rather Ride Around With You
TTITLE4=And Still
TTITLE5=For My Broken Heart
TTITLE6=Tulsa Time
EXTD=
EXTT0=
EXTT1=
EXTT2=
EXTT3=
EXTT4=
EXTT5=
EXTT6=
PLAYORDER=
